<?xml version="1.0" encoding="iso-8859-1"?>
<!-- Uploaded to: SVG Repo, www.svgrepo.com, Generator: SVG Repo Mixer Tools -->
<svg version="1.1" id="Layer_1" xmlns="http://www.w3.org/2000/svg" xmlns:xlink="http://www.w3.org/1999/xlink" 
	 viewBox="0 0 511.999 511.999" xml:space="preserve">
<rect x="233.648" y="11.13" style="fill:#FFFE9F;" width="44.521" height="44.521"/>
<path style="fill:#4A7DBA;" d="M255.908,189.216L255.908,189.216c-24.588,0-44.521-19.933-44.521-44.521V55.652h89.043v89.043
	C300.429,169.283,280.496,189.216,255.908,189.216z"/>
<g>
	<path style="fill:#87DFD6;" d="M395.177,346.69l-94.566-228.302v26.307c0,16.165-8.616,30.316-21.505,38.116l126.753,306.008
		l41.132-17.037l-26.257-63.39"/>
	<path style="fill:#87DFD6;" d="M211.386,118.388v26.307c0,16.165,8.616,30.316,21.505,38.116L106.137,488.819l-41.132-17.037
		L211.386,118.388z"/>
</g>
<path d="M255.908,122.434c-12.275,0-22.261,9.986-22.261,22.261s9.986,22.261,22.261,22.261c12.275,0,22.261-9.986,22.261-22.261
	S268.182,122.434,255.908,122.434z"/>
<path d="M457.275,467.522l-26.257-63.39c-2.353-5.679-8.862-8.376-14.543-6.023c-5.68,2.352-8.376,8.863-6.023,14.542l21.998,53.106
	l-10.271,4.254c-0.004,0.001-0.009,0.002-0.013,0.004c-0.004,0.002-0.009,0.004-0.012,0.007l-10.27,4.253L292.729,186.611
	c6.79-5.9,11.965-13.265,15.188-21.499l76.978,185.839c2.352,5.68,8.861,8.373,14.542,6.024c5.68-2.353,8.376-8.864,6.023-14.543
	L311.558,115.73V55.652c0-6.146-4.984-11.13-11.13-11.13h-11.13V11.13c0-6.146-4.984-11.13-11.13-11.13h-44.521
	c-6.146,0-11.13,4.984-11.13,11.13v33.391h-11.13c-6.146,0-11.13,4.984-11.13,11.13v60.521L54.723,467.522
	c-1.13,2.727-1.13,5.792,0.001,8.519c1.13,2.727,3.296,4.893,6.023,6.024l10.282,4.258l-4.258,10.282
	c-2.352,5.68,0.346,12.19,6.024,14.543c1.394,0.577,2.836,0.85,4.255,0.85c4.368,0,8.511-2.588,10.288-6.874l4.26-10.283
	l10.283,4.26c1.394,0.577,2.836,0.85,4.255,0.85c4.368,0,8.511-2.588,10.288-6.874l122.373-295.435
	c5.395,1.747,11.143,2.704,17.112,2.704c6.029,0,11.833-0.976,17.274-2.758l122.397,295.489c1.775,4.286,5.919,6.874,10.287,6.874
	c1.419,0,2.862-0.274,4.255-0.85l10.282-4.258l4.26,10.282c1.776,4.286,5.92,6.874,10.288,6.874c1.419,0,2.862-0.274,4.255-0.85
	c5.679-2.353,8.376-8.864,6.024-14.543l-4.258-10.282l10.282-4.258c2.727-1.131,4.893-3.297,6.023-6.024
	C458.406,473.314,458.406,470.249,457.275,467.522z M244.777,22.261h22.261v22.261h-22.261V22.261z M100.115,474.276l-10.279-4.257
	c-0.002,0-0.003-0.001-0.006-0.002c-0.001-0.001-0.003-0.001-0.006-0.002l-10.277-4.256L204.08,165.111
	c3.224,8.234,8.4,15.6,15.188,21.499L100.115,474.276z M222.996,150.302c-0.045-0.265-0.091-0.531-0.129-0.798
	c-0.046-0.312-0.083-0.626-0.119-0.938c-0.045-0.392-0.082-0.784-0.114-1.179c-0.019-0.24-0.041-0.481-0.056-0.721
	c-0.038-0.654-0.063-1.311-0.063-1.971v-26.307V66.782h11.13h44.521h11.13v77.913c0,18.412-14.979,33.391-33.391,33.391
	C239.407,178.086,225.672,166.052,222.996,150.302z"/>
<path d="M403.697,367.269c-0.669,0.278-1.315,0.623-1.916,1.024c-0.612,0.401-1.18,0.868-1.692,1.38
	c-0.512,0.512-0.979,1.08-1.391,1.692c-0.401,0.601-0.746,1.247-1.013,1.926c-0.278,0.668-0.501,1.368-0.634,2.081
	c-0.145,0.712-0.223,1.447-0.223,2.17c0,0.722,0.078,1.458,0.223,2.182c0.134,0.701,0.356,1.402,0.634,2.08
	c0.267,0.669,0.612,1.314,1.013,1.916c0.412,0.612,0.879,1.18,1.391,1.692c0.512,0.512,1.08,0.979,1.692,1.391
	c0.601,0.401,1.247,0.746,1.916,1.024c0.678,0.278,1.379,0.49,2.092,0.634c0.712,0.145,1.447,0.211,2.169,0.211
	c0.723,0,1.459-0.068,2.17-0.211c0.713-0.145,1.415-0.356,2.081-0.634c0.679-0.278,1.325-0.623,1.926-1.024
	c0.612-0.412,1.18-0.879,1.692-1.391c0.512-0.512,0.979-1.08,1.38-1.692c0.401-0.601,0.746-1.247,1.024-1.916
	c0.278-0.678,0.49-1.379,0.634-2.08c0.145-0.723,0.221-1.459,0.221-2.182c0-0.723-0.077-1.459-0.221-2.17
	c-0.145-0.713-0.356-1.415-0.634-2.081c-0.278-0.679-0.623-1.324-1.024-1.926c-0.401-0.612-0.868-1.18-1.38-1.692
	c-2.582-2.582-6.433-3.762-10.04-3.039C405.076,366.768,404.374,366.99,403.697,367.269z"/>
</svg>