<svg width="1000" height="1000" viewBox="0 0 1000 1000" fill="none" xmlns="http://www.w3.org/2000/svg">
<path d="M514.215 990.234C684.647 990.234 822.809 852.072 822.809 681.641C822.809 511.209 684.647 373.047 514.215 373.047C343.783 373.047 205.621 511.209 205.621 681.641C205.621 852.072 343.783 990.234 514.215 990.234Z" fill="#FCDD86" style="fill:#FCDD86;fill:color(display-p3 0.9882 0.8667 0.5255);fill-opacity:1;"/>
<path d="M728.805 9.76562H558.242C555.219 9.76562 552.473 11.5313 551.223 14.2852L421.887 298.828H609.387L735.824 20.668C738.145 15.5625 734.41 9.76562 728.805 9.76562Z" fill="#70D6F9" style="fill:#70D6F9;fill:color(display-p3 0.4392 0.8392 0.9765);fill-opacity:1;"/>
<path d="M628.863 255.977L609.387 298.828H610.902C614.676 298.828 617.734 301.887 617.734 305.66V327.156C617.734 330.93 614.676 333.988 610.902 333.988H417.531C413.758 333.988 410.699 330.93 410.699 327.156V305.66C410.699 301.887 413.758 298.828 417.531 298.828H421.887L441.418 255.859H401.914C388.43 255.859 377.496 266.793 377.496 280.277V404.98C418.711 384.574 465.109 373.047 514.215 373.047C563.32 373.047 609.719 384.57 650.934 404.98V280.277C650.934 267.582 641.246 257.16 628.863 255.977Z" fill="#F5C84C" style="fill:#F5C84C;fill:color(display-p3 0.9608 0.7843 0.2980);fill-opacity:1;"/>
<path d="M482.535 14.2852C481.285 11.5313 478.539 9.76562 475.516 9.76562H304.953C299.344 9.76562 295.613 15.5625 297.934 20.668L404.84 255.859H441.418L516.879 89.8438L482.535 14.2852Z" fill="#3A70BF" style="fill:#3A70BF;fill:color(display-p3 0.2275 0.4392 0.7490);fill-opacity:1;"/>
<path d="M635.184 9.76562H558.242C555.219 9.76562 552.473 11.5313 551.223 14.2852L421.887 298.828H494.738C505.016 210.184 639.687 218.41 606.016 130.859C579.879 62.9141 611.43 26.4688 635.184 9.76562Z" fill="#FC657E" style="fill:#FC657E;fill:color(display-p3 0.9882 0.3961 0.4941);fill-opacity:1;"/>
<path d="M514.215 943.359C658.758 943.359 775.934 826.184 775.934 681.641C775.934 537.097 658.758 419.922 514.215 419.922C369.672 419.922 252.496 537.097 252.496 681.641C252.496 826.184 369.672 943.359 514.215 943.359Z" fill="#F5C84C" style="fill:#F5C84C;fill:color(display-p3 0.9608 0.7843 0.2980);fill-opacity:1;"/>
<path d="M225.934 425.391H216.949V416.406C216.949 409.766 211.48 403.906 204.449 403.906C197.418 403.906 191.949 409.375 191.949 416.406V425.391H182.965C176.324 425.391 170.465 430.859 170.465 437.891C170.465 444.922 175.934 450.391 182.965 450.391H191.949V459.375C191.949 466.016 197.418 471.875 204.449 471.875C211.48 471.875 216.949 466.406 216.949 459.375V450.391H225.934C232.574 450.391 238.434 444.922 238.434 437.891C238.434 430.859 232.965 425.391 225.934 425.391Z" fill="#70D6F9" style="fill:#70D6F9;fill:color(display-p3 0.4392 0.8392 0.9765);fill-opacity:1;"/>
<path d="M794.684 245.508C777.105 242.383 763.434 228.711 759.918 211.523C759.918 210.742 758.356 210.742 758.356 211.523C754.84 228.711 741.168 242.383 723.59 245.508C722.809 245.508 722.809 246.68 723.59 247.07C741.168 250.195 754.84 263.867 758.356 281.055C758.356 281.836 759.918 281.836 759.918 281.055C763.434 263.867 777.105 250.195 794.684 247.07C795.465 246.68 795.465 245.508 794.684 245.508Z" fill="#F5C84C" style="fill:#F5C84C;fill:color(display-p3 0.9608 0.7843 0.2980);fill-opacity:1;"/>
<path d="M851.055 888.195C840.371 886.297 832.062 877.988 829.926 867.543C829.926 867.07 828.976 867.07 828.976 867.543C826.84 877.988 818.531 886.297 807.848 888.195C807.371 888.195 807.371 888.906 807.848 889.145C818.531 891.043 826.84 899.352 828.976 909.797C828.976 910.274 829.926 910.274 829.926 909.797C832.062 899.352 840.371 891.043 851.055 889.145C851.527 888.91 851.527 888.195 851.055 888.195Z" fill="#FC657E" style="fill:#FC657E;fill:color(display-p3 0.9882 0.3961 0.4941);fill-opacity:1;"/>
<path d="M736.09 330.078C728.754 330.078 722.809 336.023 722.809 343.359C722.809 350.695 728.754 356.641 736.09 356.641C743.426 356.641 749.371 350.695 749.371 343.359C749.371 336.023 743.426 330.078 736.09 330.078Z" fill="#87D147" style="fill:#87D147;fill:color(display-p3 0.5294 0.8196 0.2784);fill-opacity:1;"/>
<path d="M161.871 533.203C154.535 533.203 148.59 539.148 148.59 546.484C148.59 553.82 154.535 559.766 161.871 559.766C169.207 559.766 175.152 553.82 175.152 546.484C175.152 539.148 169.207 533.203 161.871 533.203Z" fill="#F5C84C" style="fill:#F5C84C;fill:color(display-p3 0.9608 0.7843 0.2980);fill-opacity:1;"/>
<path d="M514.219 363.281C338.676 363.281 195.859 506.098 195.859 681.641C195.859 857.184 338.672 1000 514.219 1000C689.766 1000 832.578 857.184 832.578 681.641C832.578 506.098 689.762 363.281 514.219 363.281ZM514.219 980.469C349.441 980.469 215.391 846.414 215.391 681.641C215.391 516.867 349.441 382.812 514.219 382.812C678.996 382.812 813.047 516.867 813.047 681.641C813.047 846.414 678.992 980.469 514.219 980.469Z" fill="black" style="fill:black;fill-opacity:1;"/>
<path d="M743.496 8.01172C740.266 2.99609 734.777 0 728.805 0H558.242C551.406 0 545.16 4.01953 542.332 10.2461L412.996 294.789C411.621 297.813 411.879 301.324 413.676 304.117C415.473 306.91 418.566 308.594 421.887 308.594H609.387C613.215 308.594 616.691 306.355 618.277 302.871L744.715 24.707C747.184 19.2734 746.731 13.0313 743.496 8.01172ZM603.102 289.062H437.055L559.57 19.5312H725.617L603.102 289.062Z" fill="black" style="fill:black;fill-opacity:1;"/>
<path d="M610.902 289.062C605.508 289.062 601.137 293.434 601.137 298.828C601.137 303.199 604.008 306.898 607.969 308.145V324.219H420.469V308.594H420.84C426.234 308.594 430.605 304.223 430.605 298.828C430.605 293.434 426.234 289.062 420.84 289.062H417.531C408.379 289.062 400.934 296.508 400.934 305.66V327.156C400.934 336.309 408.379 343.754 417.531 343.754H610.902C620.055 343.754 627.5 336.309 627.5 327.156V305.66C627.5 296.508 620.051 289.062 610.902 289.062Z" fill="black" style="fill:black;fill-opacity:1;"/>
<path d="M633.301 246.777C628.012 245.703 622.863 249.133 621.801 254.422C620.734 259.711 624.156 264.859 629.441 265.926C636.238 267.297 641.172 273.332 641.172 280.281V401.863C641.172 407.258 645.543 411.629 650.937 411.629C656.332 411.629 660.703 407.258 660.703 401.863V280.277C660.703 264.066 649.176 249.98 633.301 246.777Z" fill="black" style="fill:black;fill-opacity:1;"/>
<path d="M439.289 246.094H401.914C383.066 246.094 367.73 261.43 367.73 280.277V402.953C367.73 408.348 372.102 412.719 377.496 412.719C382.891 412.719 387.262 408.348 387.262 402.953V280.277C387.262 272.199 393.836 265.625 401.914 265.625H439.289C444.684 265.625 449.055 261.254 449.055 255.859C449.055 250.465 444.684 246.094 439.289 246.094Z" fill="black" style="fill:black;fill-opacity:1;"/>
<path d="M524.359 82.6992L491.422 10.2461C488.598 4.01953 482.352 0 475.516 0H304.953C298.984 0 293.488 2.99609 290.258 8.01562C287.027 13.0352 286.574 19.2734 289.043 24.707L394.73 257.219C396.367 260.816 399.914 262.945 403.625 262.945C404.977 262.945 406.352 262.664 407.66 262.066C412.57 259.836 414.742 254.047 412.508 249.133L308.148 19.5312H474.191L506.578 90.7812C508.809 95.6875 514.605 97.8633 519.512 95.6289C524.418 93.3984 526.594 87.6094 524.359 82.6992Z" fill="black" style="fill:black;fill-opacity:1;"/>
<path d="M514.219 839.844C508.824 839.844 504.453 844.215 504.453 849.609V888.672C504.453 894.066 508.824 898.438 514.219 898.438C519.613 898.438 523.984 894.066 523.984 888.672V849.609C523.984 844.215 519.613 839.844 514.219 839.844Z" fill="black" style="fill:black;fill-opacity:1;"/>
<path d="M579.004 577.016C596.893 577.016 611.395 562.514 611.395 544.625C611.395 526.736 596.893 512.234 579.004 512.234C561.115 512.234 546.613 526.736 546.613 544.625C546.613 562.514 561.115 577.016 579.004 577.016Z" fill="#FCDD86" style="fill:#FCDD86;fill:color(display-p3 0.9882 0.8667 0.5255);fill-opacity:1;"/>
<path d="M557.199 700.707L512.125 675.355L560.191 624.188C570.031 613.723 566.531 596.707 554.617 590.352L489.84 555.805C481.992 551.617 472.383 552.672 465.625 558.461L405.164 610.285C396.109 618.047 395.063 631.68 402.82 640.73C410.57 649.769 424.199 650.848 433.266 643.074L482.527 600.852L509.402 615.184L461.781 665.879C452.18 676.098 454.73 692.621 466.934 699.484L512.148 724.918L474.652 765.301C466.539 774.039 467.043 787.703 475.781 795.816C484.523 803.934 498.18 803.422 506.297 794.687L562.437 734.227C571.922 724 569.387 707.559 557.199 700.707Z" fill="#FCDD86" style="fill:#FCDD86;fill:color(display-p3 0.9882 0.8667 0.5255);fill-opacity:1;"/>
<path d="M466.934 699.477C454.73 692.617 452.18 676.094 461.781 665.871L462.172 665.453L358.93 764.395C350.32 772.645 350.027 786.312 358.281 794.922C366.512 803.512 380.184 803.84 388.813 795.57L480.895 707.324L466.934 699.477Z" fill="#FCDD86" style="fill:#FCDD86;fill:color(display-p3 0.9882 0.8667 0.5255);fill-opacity:1;"/>
<path d="M687.449 592.793C680.664 582.988 667.211 580.543 657.406 587.332L611.777 618.922L554.367 590.215L554.621 590.352C566.535 596.707 570.035 613.723 560.195 624.188L549.184 635.906L603.898 663.266C610.934 666.785 619.352 666.199 625.844 661.703L681.984 622.836C691.793 616.047 694.234 602.598 687.449 592.793Z" fill="#FCDD86" style="fill:#FCDD86;fill:color(display-p3 0.9882 0.8667 0.5255);fill-opacity:1;"/>
<path d="M579.008 502.469C555.762 502.469 536.852 521.379 536.852 544.625C536.852 567.871 555.762 586.781 579.008 586.781C602.25 586.781 621.16 567.871 621.16 544.625C621.16 521.379 602.25 502.469 579.008 502.469ZM579.008 567.246C566.535 567.246 556.383 557.098 556.383 544.621C556.383 532.148 566.535 521.996 579.008 521.996C591.48 521.996 601.629 532.145 601.629 544.621C601.629 557.098 591.48 567.246 579.008 567.246Z" fill="black" style="fill:black;fill-opacity:1;"/>
<path d="M577.59 714.676C576.094 705.125 570.41 696.934 561.988 692.195L527.777 672.957L567.305 630.879C573.953 623.809 576.848 614.176 575.246 604.449C573.648 594.734 567.656 586.242 559.215 581.738L494.437 547.191C482.961 541.066 469.152 542.578 459.273 551.051L398.809 602.875C385.684 614.129 384.16 633.961 395.41 647.094C406.66 660.219 426.496 661.742 439.625 650.496L483.82 612.613L493.547 617.801L454.66 659.199C448.02 666.27 445.055 675.828 446.523 685.422C447.992 695.02 453.688 703.246 462.141 708L496.555 727.359L467.496 758.66C461.797 764.797 458.824 772.789 459.137 781.16C459.449 789.531 462.996 797.277 469.137 802.977C475.164 808.57 482.82 811.34 490.461 811.34C498.883 811.34 507.281 807.98 513.453 801.336L569.594 740.871C576.172 733.777 579.086 724.234 577.59 714.676ZM555.281 727.574L499.141 788.035C494.695 792.816 487.199 793.09 482.422 788.656C480.105 786.508 478.766 783.586 478.652 780.43C478.535 777.27 479.656 774.258 481.805 771.945L519.301 731.563C521.336 729.367 522.254 726.363 521.793 723.41C521.332 720.457 519.543 717.875 516.934 716.41L471.719 690.977C468.535 689.188 466.387 686.082 465.832 682.461C465.277 678.844 466.395 675.238 468.898 672.574L516.52 621.879C518.602 619.664 519.531 616.602 519.039 613.602C518.543 610.602 516.68 608.004 514 606.574L487.125 592.242C485.68 591.473 484.102 591.094 482.531 591.094C480.25 591.094 477.984 591.895 476.176 593.445L426.914 635.668C421.961 639.91 414.477 639.336 410.238 634.383C405.996 629.43 406.57 621.949 411.52 617.703L471.98 565.883C475.711 562.691 480.918 562.117 485.246 564.426L550.023 598.973C553.137 600.633 555.359 603.867 555.977 607.621C556.332 609.781 556.426 613.941 553.074 617.508L505.008 668.676C502.953 670.863 502.02 673.875 502.473 676.84C502.93 679.809 504.723 682.398 507.34 683.871L552.414 709.223C555.59 711.008 557.73 714.098 558.297 717.695C558.859 721.301 557.762 724.902 555.281 727.574Z" fill="black" style="fill:black;fill-opacity:1;"/>
<path d="M485.324 703.082C481.594 699.191 475.414 699.059 471.516 702.789L382.055 788.527C379.773 790.711 376.84 791.848 373.613 791.812C370.457 791.742 367.512 790.449 365.332 788.168C363.145 785.891 361.98 782.891 362.047 779.734C362.117 776.574 363.41 773.633 365.691 771.445L467.191 674.172C471.086 670.437 471.215 664.258 467.484 660.363C463.754 656.473 457.57 656.34 453.676 660.07L352.176 757.344C339.691 769.309 339.27 789.199 351.231 801.68C357.02 807.719 364.816 811.148 373.184 811.336C373.422 811.34 373.66 811.344 373.898 811.344C382.02 811.344 389.691 808.262 395.574 802.629L485.035 716.894C488.926 713.16 489.055 706.977 485.324 703.082Z" fill="black" style="fill:black;fill-opacity:1;"/>
<path d="M695.477 587.238C690.711 580.352 683.547 575.731 675.305 574.231C667.059 572.734 658.73 574.535 651.844 579.301L610.969 607.602L561.074 582.652C556.242 580.234 550.387 582.191 547.973 587.02C545.563 591.844 547.52 597.711 552.34 600.121L607.41 627.656C610.598 629.25 614.406 628.98 617.336 626.949L662.965 595.359C665.566 593.563 668.707 592.891 671.82 593.445C674.926 594.012 677.625 595.75 679.422 598.352C681.223 600.949 681.902 604.09 681.336 607.199C680.77 610.305 679.027 613.008 676.434 614.805L620.293 653.672C616.742 656.133 612.133 656.461 608.27 654.527L556.875 628.832C552.047 626.422 546.187 628.375 543.773 633.199C541.363 638.023 543.32 643.891 548.141 646.301L599.535 671.996C603.969 674.215 608.77 675.309 613.555 675.309C619.824 675.309 626.066 673.43 631.41 669.731L687.551 630.863C694.441 626.098 699.055 618.93 700.551 610.691C702.047 602.453 700.246 594.121 695.477 587.238Z" fill="black" style="fill:black;fill-opacity:1;"/>
<path d="M641.953 4.86329C638.785 0.488285 632.687 -0.488277 628.316 2.66797C604.332 20.0039 568.359 60.1641 596.902 134.363C611.375 171.996 591.434 187.078 554.945 210.488C525.605 229.313 492.355 250.648 485.566 293.82C484.73 299.148 488.367 304.148 493.699 304.984C494.211 305.066 494.723 305.106 495.227 305.106C499.949 305.106 504.105 301.668 504.863 296.856C510.289 262.352 538.352 244.344 565.492 226.93C598.551 205.715 636.023 181.676 615.129 127.352C592.48 68.4649 616.023 35.6524 639.762 18.4961C644.125 15.3399 645.109 9.23438 641.953 4.86329Z" fill="black" style="fill:black;fill-opacity:1;"/>
<path d="M514.219 410.156C364.52 410.156 242.734 531.945 242.734 681.641C242.734 831.336 364.523 953.125 514.219 953.125C663.914 953.125 785.703 831.336 785.703 681.641C785.703 531.945 663.914 410.156 514.219 410.156ZM514.219 933.594C375.289 933.594 262.266 820.566 262.266 681.641C262.266 542.715 375.293 429.688 514.219 429.688C653.145 429.688 766.172 542.715 766.172 681.641C766.172 820.566 653.145 933.594 514.219 933.594Z" fill="black" style="fill:black;fill-opacity:1;"/>
</svg>
